:FULLY-SPECIFIED
:FORCE-ALL-JOINTS-BE-3DOF
:DEGREES
374
root 6.21098 16.1852 -16.3539 6.29826 -6.31299 -2.62405
lfemur -12.4293 9.09176 -2.92928
ltibia 52.0432 -0 0
lfoot 2.62243 18.5411 0.92014
ltoes 6.50844 -0 0
rfemur -38.8169 -12.6111 16.9131
rtibia 48.8977 -0 0
rfoot -4.32058 -4.72082 0.166889
rtoes -5.9295 0 0
lowerback 1.52036 0.157904 0.883346
upperback 1.96513 0.189673 0.371789
thorax 1.25231 0.114878 -0.236507
lowerneck -6.87536 -2.72377 2.71321
upperneck 1.73783 -3.98965 2.70454
head 1.98397 -1.8771 0.262424
lclavicle -2.77626e-14 1.66832e-14 -5.76513e-31
lhumerus -45.92 -25.459 102.908
lradius 53.2799 -0 0
lwrist 16.8923 0 0
lhand -7.13969 6.49682 0.448123
lfingers 7.12502 -0 0
lthumb 18.7201 35.3729 0.376371
rclavicle -2.77626e-14 1.66832e-14 -5.76513e-31
rhumerus -38.3153 8.35304 -88.5545
rradius 76.6945 -0 0
rwrist 7.43144 0 0
rhand -43.8485 -32.9336 0.203998
rfingers 7.12502 -0 0
rthumb -16.6651 -62.2555 0.1537
375
root 6.14047 16.1766 -16.2228 6.21894 -7.17146 -2.73046
lfemur -12.7716 9.15272 -2.87209
ltibia 52.1319 -0 0
lfoot 2.09144 18.3035 0.945648
ltoes 6.13994 -0 0
rfemur -38.6405 -12.2788 16.5876
rtibia 48.7838 -0 0
rfoot -4.1133 -4.60917 0.171159
rtoes -6.11051 0 0
lowerback 1.63381 0.220677 0.942156
upperback 1.97294 0.274569 0.33978
thorax 1.20035 0.158353 -0.306771
lowerneck -6.86592 -2.53522 2.89103
upperneck 1.7858 -3.75014 2.57076
head 1.9989 -1.75778 0.199444
lclavicle -2.78043e-14 1.65863e-14 -5.78038e-31
lhumerus -45.8531 -25.367 102.693
lradius 53.1586 -0 0
lwrist 16.819 0 0
lhand -7.53179 6.334 0.461403
lfingers 7.12502 -0 0
lthumb 18.343 35.2424 0.388317
rclavicle -2.78043e-14 1.65863e-14 -5.78038e-31
rhumerus -38.5415 8.12981 -88.5432
rradius 76.4623 -0 0
rwrist 7.50353 0 0
rhand -43.6723 -32.7291 0.207195
rfingers 7.12502 -0 0
rthumb -16.4952 -62.0691 0.154906
376
root 6.06931 16.168 -16.0902 6.14024 -8.03525 -2.83684
lfemur -13.1176 9.21393 -2.81544
ltibia 52.221 -0 0
lfoot 1.55464 18.0632 0.969333
ltoes 5.76722 -0 0
rfemur -38.4654 -11.9419 16.2603
rtibia 48.6696 -0 0
rfoot -3.90351 -4.4963 0.1751
rtoes -6.29364 0 0
lowerback 1.74844 0.283883 1.00158
upperback 1.98072 0.360219 0.307494
thorax 1.14775 0.202146 -0.37768
lowerneck -6.85587 -2.34519 3.07038
upperneck 1.8338 -3.5086 2.43599
head 2.01388 -1.63749 0.13592
lclavicle -2.78392e-14 1.64848e-14 -5.78226e-31
lhumerus -45.7862 -25.2742 102.477
lradius 53.0363 -0 0
lwrist 16.7447 0 0
lhand -7.92701 6.16944 0.473649
lfingers 7.12502 -0 0
lthumb 17.9629 35.1104 0.399468
rclavicle -2.78392e-14 1.64848e-14 -5.78226e-31
rhumerus -38.7695 7.90558 -88.5309
rradius 76.2286 -0 0
rwrist 7.57661 0 0
rhand -43.4929 -32.5212 0.209935
rfingers 7.12502 -0 0
rthumb -16.3221 -61.8795 0.155721
377
root 5.99755 16.1592 -15.9562 6.06224 -8.90297 -2.94308
lfemur -13.4669 9.27519 -2.75952
ltibia 52.3103 -0 0
lfoot 1.01251 17.8205 0.991119
ltoes 5.39077 -0 0
rfemur -38.2919 -11.6006 15.9315
rtibia 48.5553 -0 0
rfoot -3.6914 -4.38223 0.178702
rtoes -6.47873 0 0
lowerback 1.86417 0.347465 1.06155
upperback 1.98846 0.446525 0.274971
thorax 1.09457 0.246205 -0.449144
lowerneck -6.84521 -2.15391 3.25104
upperneck 1.8818 -3.26533 2.3004
head 2.02892 -1.51637 0.0719208
lclavicle -2.78677e-14 1.63787e-14 -5.77129e-31
lhumerus -45.7191 -25.1807 102.259
lradius 52.9131 -0 0
lwrist 16.6694 0 0
lhand -8.32486 6.00332 0.484811
lfingers 7.12502 -0 0
lthumb 17.5803 34.9771 0.409781
rclavicle -2.78677e-14 1.63787e-14 -5.77129e-31
rhumerus -38.9992 7.68074 -88.5176
rradius 75.9935 -0 0
rwrist 7.65068 0 0
rhand -43.3101 -32.3101 0.212213
rfingers 7.12502 -0 0
rthumb -16.1459 -61.6869 0.156148
378
root 5.92528 16.1504 -15.821 5.98498 -9.77327 -3.04912
lfemur -13.8193 9.33633 -2.70447
ltibia 52.3998 -0 0
lfoot 0.465536 17.5753 1.01094
ltoes 5.0111 -0 0
rfemur -38.1203 -11.2552 15.6016
rtibia 48.4411 -0 0
rfoot -3.47714 -4.26701 0.181953
rtoes -6.66562 0 0
lowerback 1.98086 0.411313 1.12197
upperback 1.99613 0.533392 0.242253
thorax 1.04083 0.290478 -0.521075
lowerneck -6.83395 -1.96162 3.43278
upperneck 1.92975 -3.02063 2.16412
head 2.044 -1.39458 0.0075161
lclavicle -2.78898e-14 1.62685e-14 -5.74798e-31
lhumerus -45.6522 -25.0867 102.041
lradius 52.7891 -0 0
lwrist 16.5933 0 0
lhand -8.72484 5.83578 0.494847
lfingers 7.12502 -0 0
lthumb 17.1956 34.8425 0.419219
rclavicle -2.78898e-14 1.62685e-14 -5.74798e-31
rhumerus -39.2302 7.45569 -88.5034
rradius 75.7575 -0 0
rwrist 7.72574 0 0
rhand -43.1242 -32.0961 0.214024
rfingers 7.12502 -0 0
rthumb -15.9665 -61.4914 0.156188
379
root 5.85257 16.1416 -15.6845 5.90851 -10.6448 -3.15486
lfemur -14.1745 9.39715 -2.65046
ltibia 52.4892 -0 0
lfoot -0.0858138 17.328 1.02873
ltoes 4.6287 -0 0
rfemur -37.9509 -10.9059 15.2709
rtibia 48.3272 -0 0
rfoot -3.26093 -4.15068 0.184844
rtoes -6.85413 0 0
lowerback 2.09843 0.475372 1.18278
upperback 2.00373 0.620721 0.209379
thorax 0.986569 0.334915 -0.593385
lowerneck -6.82211 -1.76857 3.6154
upperneck 1.97764 -2.77481 2.0273
head 2.05912 -1.27227 -0.0572253
lclavicle -2.79058e-14 1.6154e-14 -5.71286e-31
lhumerus -45.5854 -24.9924 101.823
lradius 52.6646 -0 0
lwrist 16.5162 0 0
lhand -9.12643 5.66699 0.503717
lfingers 7.12502 -0 0
lthumb 16.8094 34.7068 0.427745
rclavicle -2.79058e-14 1.6154e-14 -5.71286e-31
rhumerus -39.4623 7.2308 -88.4883
rradius 75.5208 -0 0
rwrist 7.80179 0 0
rhand -42.935 -31.8792 0.215365
rfingers 7.12502 -0 0
rthumb -15.7841 -61.2933 0.155843
380
root 5.77949 16.1327 -15.547 5.83287 -11.5161 -3.26023
lfemur -14.5321 9.45747 -2.59766
ltibia 52.5786 -0 0
lfoot -0.64106 17.0786 1.04443
ltoes 4.24407 -0 0
rfemur -37.7841 -10.5531 14.9398
rtibia 48.2139 -0 0
rfoot -3.04295 -4.03328 0.187368
rtoes -7.04411 0 0
lowerback 2.21677 0.539567 1.2439
upperback 2.01123 0.708416 0.17639
thorax 0.931828 0.379463 -0.665984
lowerneck -6.8097 -1.575 3.79869
upperneck 2.02545 -2.52818 1.89008
head 2.07428 -1.1496 -0.122234
lclavicle -2.79158e-14 1.60357e-14 -5.66647e-31
lhumerus -45.5189 -24.8978 101.604
lradius 52.5396 -0 0
lwrist 16.4383 0 0
lhand -9.52914 5.49711 0.511388
lfingers 7.12502 -0 0
lthumb 16.4221 34.57 0.435329
rclavicle -2.79158e-14 1.60357e-14 -5.66647e-31
rhumerus -39.6953 7.00648 -88.4724
rradius 75.2839 -0 0
rwrist 7.87884 0 0
rhand -42.7426 -31.6598 0.216233
rfingers 7.12502 -0 0
rthumb -15.5986 -61.0927 0.155118
381
root 5.70612 16.1238 -15.4085 5.75809 -12.3859 -3.36515
lfemur -14.8919 9.51708 -2.54621
ltibia 52.6677 -0 0
lfoot -1.19972 16.8273 1.05799
ltoes 3.85772 -0 0
rfemur -37.62 -10.1971 14.6085
rtibia 48.1014 -0 0
rfoot -2.8234 -3.91486 0.189516
rtoes -7.23539 0 0
lowerback 2.33577 0.603824 1.30527
upperback 2.01862 0.79638 0.143327
thorax 0.876643 0.424073 -0.738782
lowerneck -6.79676 -1.38115 3.98242
upperneck 2.07316 -2.28103 1.75262
head 2.08945 -1.02671 -0.187438
lclavicle -2.792e-14 1.59136e-14 -5.60934e-31
lhumerus -45.4526 -24.803 101.386
lradius 52.4143 -0 0
lwrist 16.3596 0 0
lhand -9.93247 5.3263 0.517832
lfingers 7.12502 -0 0
lthumb 16.0343 34.4323 0.441942
rclavicle -2.792e-14 1.59136e-14 -5.60934e-31
rhumerus -39.929 6.78311 -88.4557
rradius 75.0469 -0 0
rwrist 7.95687 0 0
rhand -42.5471 -31.438 0.216626
rfingers 7.12502 -0 0
rthumb -15.41 -60.8897 0.154015
